<svg xmlns="http://www.w3.org/2000/svg" height="512pt" viewBox="0 -74 512.002 512" width="512pt"><path d="m482.738281 92.550781c.5.027344 1 .039063 1.496094.039063 7.054687 0 13.9375-2.722656 19.085937-7.597656 5.515626-5.222657 8.683594-12.574219 8.683594-20.167969v-37.054688c0-7.597656-3.167968-14.949219-8.683594-20.171875-5.511718-5.214844-13.015624-7.96875-20.582031-7.5546872-51.488281 2.8164062-77.929687 16.6289062-86.527343 22.1054692h-36.546876c-5.519531 0-10 4.476562-10 10 0 5.523437 4.480469 10 10 10h29.640626v8.292968h-266.425782v-8.292968h160.832032c5.523437 0 10-4.476563 10-10 0-5.523438-4.476563-10-10-10h-167.734376c-8.597656-5.476563-35.042968-19.289063-86.53125-22.1054692-7.566406-.4179688-15.070312 2.3398432-20.582031 7.5546872-5.515625 5.226563-8.679687 12.574219-8.679687 20.171875v37.054688c0 7.59375 3.164062 14.945312 8.679687 20.167969 5.148438 4.875 12.03125 7.597656 19.085938 7.597656.496093 0 .996093-.011719 1.492187-.039063 51.492188-2.820312 77.9375-16.632812 86.53125-22.109375h2.261719c-1.535156 3.78125-2.367187 7.867188-2.367187 12.074219 0 5.441406 1.414062 10.847656 4.09375 15.640625l58.375 104.304688v65.070312c-6.496094 4.46875-12.472657 9.765625-17.804688 15.84375-10.957031 12.480469-18.371094 27.253906-21.828125 43.246094-11.839844-1.855469-24.375 1.761718-33.480469 10.867187l-.175781.179688c-3.554687 3.550781-8.273437 5.503906-13.292969 5.503906-.011718 0-.019531 0-.027344 0-5.035156-.007813-9.757812-1.976563-13.304687-5.542969-7.324219-7.367187-17.074219-11.429687-27.457031-11.445312-.023438 0-.039063 0-.0625 0-10.363282 0-20.101563 4.035156-27.441406 11.375l-.167969.167968c-3.550781 3.550782-8.273438 5.503907-13.292969 5.503907-5.523438 0-10 4.480469-10 10 0 5.523437 4.476562 10 10 10 10.363281 0 20.105469-4.035157 27.445312-11.371094l.167969-.171875c3.550781-3.550781 8.269531-5.503906 13.289063-5.503906h.03125c5.03125.007812 9.753906 1.976562 13.300781 5.542968 7.324219 7.367188 17.074219 11.429688 27.460937 11.445313h.058594c10.363282 0 20.101563-4.035156 27.433594-11.363281l.175781-.179688c6.355469-6.355468 16.160157-7.191406 23.433594-2.527344 2.957031 1.890626 5.222656 4.691407 8.066406 6.753907 6.578125 4.785156 14.46875 7.375 22.757813 7.375 8.960937 0 17.453125-3.023438 24.324218-8.574219 2.25-1.8125 4.128907-4.03125 6.585938-5.582031 2.964844-1.875 6.398438-2.890625 9.996094-2.890625h.027344c2.136718 0 4.207031.378906 6.164062 1.058594 2.65625.925781 5.097656 2.433593 7.140625 4.488281 2.632813 2.648437 5.582031 4.859375 8.757813 6.617187.140624.078125.277343.160156.417968.238282.195313.101562.394532.195312.589844.296874.367188.191407.734375.382813 1.109375.5625.011719.003907.027344.011719.039063.015626 5.105468 2.421874 10.726562 3.703124 16.546874 3.710937h.058594c10.363282 0 20.101563-4.035156 27.433594-11.363281 7.464844-7.5 19.554688-7.382813 26.996094.0625 7.566406 7.5625 17.503906 11.347656 27.4375 11.347656 9.9375 0 19.875-3.785156 27.441406-11.347656 1.449219-1.464844 3.113281-2.726563 4.960938-3.648438 2.605468-1.328125 5.496093-2.039062 8.503906-2.039062h.027344c5.03125.003906 9.757812 1.976562 13.304687 5.542968 7.320313 7.363282 17.074219 11.429688 27.457031 11.445313h.058594c10.363281 0 20.105469-4.035156 27.433594-11.367187l.179687-.175782c3.550781-3.550781 8.269531-5.507812 13.292969-5.507812 5.019531 0 9.742188 1.957031 13.289062 5.507812l.238282.238282c7.625 7.625 18.1875 11.75 28.957031 11.332031 5.519531-.214844 9.820313-4.863281 9.601563-10.382813-.214844-5.519531-4.871094-9.816406-10.382813-9.601562-5.296875.199218-10.285156-1.742188-14.03125-5.492188l-.238281-.238281c-7.328125-7.328125-17.070313-11.363281-27.4375-11.363281-10.363282 0-20.105469 4.035156-27.433594 11.363281l-.179688.179687c-3.550781 3.550782-8.269531 5.503907-13.292968 5.503907-.007813 0-.015625 0-.027344 0-5.03125-.007813-9.753906-1.976563-13.300781-5.542969-7.324219-7.367188-17.074219-11.429688-27.457031-11.445312-.023438 0-.039063 0-.0625 0-1.582032 0-3.152344.105468-4.699219.292968-3.496094-16.054687-10.988281-30.871094-22.023438-43.355468-5.277343-5.972657-11.175781-11.183594-17.582031-15.589844v-65.066406l58.375-104.300782c4.886719-8.722656 5.199219-18.945312 1.660156-27.71875h2.328125c8.601563 5.480469 35.046875 19.289063 86.53125 22.109375zm1.097657-72.539062c2.136718-.117188 4.171874.632812 5.734374 2.109375 1.566407 1.484375 2.433594 3.492187 2.433594 5.648437v37.054688c0 2.15625-.867187 4.160156-2.433594 5.644531-1.5625 1.480469-3.601562 2.222656-5.734374 2.109375-43.066407-2.355469-66.148438-12.847656-74.53125-17.585937v-17.40625c8.371093-4.738282 31.402343-15.210938 74.53125-17.574219zm-227.742188 118.324219c-13.574219 0-24.621094-11.042969-24.621094-24.617188s11.042969-24.617188 24.621094-24.617188c13.574219 0 24.617188 11.042969 24.617188 24.617188s-11.042969 24.617188-24.617188 24.617188zm-227.742188-65.757813c-2.148437.113281-4.175781-.632813-5.734374-2.109375-1.570313-1.484375-2.433594-3.488281-2.433594-5.644531v-37.054688c0-2.160156.863281-4.164062 2.433594-5.648437 1.453124-1.375 3.320312-2.121094 5.300781-2.121094.144531 0 .289062.003906.433593.011719 43.0625 2.359375 66.144532 12.851562 74.527344 17.585937v17.40625c-8.367187 4.742188-31.402344 15.214844-74.527344 17.574219zm216.886719-2.136719c-19.375 4.863282-33.765625 22.417969-33.765625 43.277344 0 8.921875 2.644532 17.238281 7.175782 24.21875-2.382813-.707031-4.441407-2.308594-5.679688-4.535156l-35.058594-62.960938zm109.339844 263.71875c-2.429687 1.859375-4.414063 4.296875-6.984375 5.96875-7.292969 4.8125-17.226562 4.007813-23.640625-2.40625l-.117187-.117187c-.039063-.042969-.078126-.082031-.117188-.121094-1.265625-1.261719-2.597656-2.40625-3.980469-3.457031-12.605469-9.585938-29.777343-10.429688-43.179687-2.519532-2.757813 1.625-5.351563 3.617188-7.714844 5.980469l-.179688.179688c-3.546874 3.546875-8.265624 5.5-13.292968 5.5-3.027344 0-5.9375-.722657-8.554688-2.0625-.109375-.054688-.222656-.097657-.328125-.15625-.027343-.015625-.050781-.03125-.074219-.042969-1.589843-.863281-3.058593-1.960938-4.371093-3.277344-3.976563-4-8.675781-7.019531-13.796875-8.953125-4.308594-1.625-8.914063-2.484375-13.65625-2.492187-.023438 0-.042969 0-.0625 0-10.363282 0-20.101563 4.035156-27.433594 11.367187l-.179688.175781c-.023437.027344-.050781.046876-.078124.074219-.429688.425781-.875.828125-1.332032 1.203125-.105468.085938-.214844.15625-.320312.238282-.394532.308593-.792969.613281-1.203125.882812-.050781.035156-.105469.0625-.15625.09375-5.679688 3.671875-12.917969 3.976562-18.855469.902344-2.929688-1.535156-5.003906-3.949219-7.511719-6.035156 4.519531-28.074219 24.503907-51.546876 51.132813-60.441407 3.207031-1.066406 6.472656-1.851562 9.777344-2.542969 9.15625-1.78125 17.09375-4.421874 23.617187-7.144531 1.4375-.597656 2.8125-1.203125 4.109375-1.800781v15.582031c0 5.523438 4.476562 10 10 10s10-4.476562 10-10v-15.582031c5.773438 2.667969 12.964844 5.425781 21.375 7.535156 2.53125.632813 5.085938 1.128906 7.636719 1.667969 8.078125 1.675781 15.753906 4.625 22.8125 8.765625.085937.046875.175781.082031.261719.128906 6.765624 3.996094 12.917968 9.0625 18.261718 15.109375 9.53125 10.78125 15.734375 23.75 18.136719 37.796875zm20.195313-245.777344c-.003907 0-.003907.003907-.003907.003907l-59.648437 106.582031c-.835938 1.492188-1.273438 3.175781-1.273438 4.882812v57.195313c-4.75-1.804687-9.671875-3.238281-14.738281-4.285156l-.636719-.125c-.195312-.039063-.386718-.074219-.574218-.117188-.0625-.011719-.125-.023437-.1875-.039062-21.84375-4.226563-35.414063-14.359375-35.519532-14.4375-.074218-.058594-.15625-.109375-.234375-.167969-.128906-.09375-.261719-.1875-.394531-.277344-.109375-.074218-.222656-.136718-.335938-.207031-.148437-.085937-.289062-.175781-.441406-.257813-3.414062-1.820312-7.730468-1.453124-10.792968.910157-.132813.101562-13.730469 10.21875-35.515626 14.4375-.066406.015625-.128906.027343-.195312.039062-.1875.042969-.378906.078125-.570312.117188l-.660157.128906c-.28125.058594-.554687.132813-.832031.191406-4.765625 1.027344-9.402344 2.386719-13.878906 4.089844v-57.195313c0-1.707031-.441406-3.390624-1.273438-4.882812l-59.644531-106.574219c-1.015625-1.8125-1.550781-3.84375-1.550781-5.878906 0-4.019531 1.992187-7.761719 5.324218-10.007813 2.835938-1.910156 6.226563-2.523437 9.546876-1.726562 3.320312.792969 6.066406 2.875 7.726562 5.851562l37.023438 66.492188c5.222656 9.386719 15.140624 15.214844 25.882812 15.214844h69.433594c10.746094 0 20.664062-5.828125 25.882812-15.210938l37.023438-66.492187c1.664062-2.980469 4.40625-5.0625 7.726562-5.855469 3.324219-.800781 6.714844-.183594 9.542969 1.722656 5.164063 3.480469 6.828125 10.457032 3.789063 15.878906zm-75.558594 45.023438c-1.238282 2.226562-3.296875 3.824219-5.679688 4.527344 4.53125-6.976563 7.175782-15.292969 7.175782-24.214844 0-20.859375-14.390626-38.414062-33.761719-43.277344h67.324219zm0 0"></path><path d="m265.230469 312.289062c-1.632813-3.925781-5.6875-6.457031-9.941407-6.148437-4.15625.300781-7.742187 3.230469-8.890624 7.230469-1.152344 4 .382812 8.457031 3.78125 10.871094 3.371093 2.394531 7.925781 2.464843 11.371093.183593 3.945313-2.605469 5.464844-7.789062 3.679688-12.136719zm0 0"></path><path d="m313.03125 35.976562c1.609375 3.863282 5.539062 6.355469 9.71875 6.15625 4.109375-.195312 7.742188-2.996093 9.015625-6.898437 1.257813-3.855469-.015625-8.246094-3.160156-10.816406-3.375-2.757813-8.265625-2.988281-11.894531-.582031-3.941407 2.613281-5.464844 7.785156-3.679688 12.140624zm0 0"></path></svg>