<svg xmlns="http://www.w3.org/2000/svg" xmlns:xlink="http://www.w3.org/1999/xlink" id="Layer_1" x="0px" y="0px" viewBox="0 0 480 480" style="enable-background:new 0 0 480 480;" xml:space="preserve">
<g>
	<g>
		<g>
			<path d="M345.752,145.56l3.904-3.904c3.128-3.128,3.128-8.184,0-11.312s-8.184-3.128-11.312,0l-6.384,6.384     c-18.248-10.576-38.464-18.096-59.96-21.888V94.52c9.288-3.312,16-12.112,16-22.528V56V40c0-22.056-17.944-40-40-40h-16     c-22.056,0-40,17.944-40,40v16v16c0,10.416,6.712,19.216,16,22.528v20.32c-21.496,3.784-41.712,11.312-59.96,21.888l-6.384-6.384     c-3.128-3.128-8.184-3.128-11.312,0s-3.128,8.184,0,11.312l3.904,3.904C86.968,178.896,56,233.88,56,296     c0,101.464,82.544,184,184,184s184-82.536,184-184C424,233.88,393.032,178.896,345.752,145.56z M208,40c0-13.232,10.768-24,24-24     h16c13.232,0,24,10.768,24,24v8h-64V40z M208,64h64v8c0,4.416-3.592,8-8,8h-48c-4.408,0-8-3.584-8-8V64z M256,96v16h-32V96H256z      M240,464c-92.64,0-168-75.368-168-168s75.36-168,168-168s168,75.368,168,168S332.64,464,240,464z"></path>
			<path d="M330.72,205.816c-0.088-0.096-0.12-0.224-0.216-0.32s-0.224-0.12-0.32-0.216C307.032,182.256,275.152,168,240,168     c-35.152,0-67.032,14.256-90.184,37.28c-0.096,0.088-0.224,0.12-0.32,0.216s-0.12,0.224-0.216,0.32     C126.256,228.968,112,260.848,112,296c0,35.152,14.256,67.032,37.28,90.184c0.088,0.096,0.12,0.224,0.216,0.32     s0.224,0.12,0.32,0.216C172.968,409.744,204.848,424,240,424s67.032-14.256,90.184-37.28c0.096-0.088,0.224-0.12,0.32-0.216     s0.12-0.224,0.216-0.32C353.744,363.032,368,331.152,368,296C368,260.848,353.744,228.968,330.72,205.816z M324.544,369.232     l-5.352-5.352c-3.128-3.128-8.184-3.128-11.312,0c-3.128,3.128-3.128,8.184,0,11.312l5.352,5.352     c-17.76,15.408-40.376,25.28-65.232,27.048V400c0-4.424-3.584-8-8-8c-4.416,0-8,3.576-8,8v7.592     c-24.864-1.768-47.472-11.64-65.232-27.048l5.352-5.352c3.128-3.128,3.128-8.184,0-11.312c-3.128-3.128-8.184-3.128-11.312,0     l-5.352,5.352c-15.408-17.76-25.28-40.376-27.048-65.232H136c4.416,0,8-3.576,8-8s-3.584-8-8-8h-7.592     c1.768-24.864,11.64-47.472,27.048-65.232l5.352,5.352c1.56,1.56,3.608,2.344,5.656,2.344c2.048,0,4.096-0.784,5.656-2.344     c3.128-3.128,3.128-8.184,0-11.312l-5.352-5.352c17.76-15.408,40.376-25.28,65.232-27.048V192c0,4.424,3.584,8,8,8     c4.416,0,8-3.576,8-8v-7.592c24.864,1.768,47.472,11.64,65.232,27.048l-5.352,5.352c-3.128,3.128-3.128,8.184,0,11.312     c1.56,1.56,3.608,2.344,5.656,2.344c2.048,0,4.096-0.784,5.656-2.344l5.352-5.352c15.408,17.76,25.28,40.376,27.048,65.232H344     c-4.416,0-8,3.576-8,8s3.584,8,8,8h7.592C349.824,328.864,339.952,351.472,324.544,369.232z"></path>
			<path d="M280,295.032c0-0.016,0-0.024,0-0.032c0-0.136-0.064-0.28-0.088-0.416c-0.36-10.144-4.384-19.648-11.6-26.856     c-0.048-0.048-0.12-0.08-0.168-0.128l-20.824-46.84c-1.288-2.904-4.16-4.76-7.32-4.76c-3.16,0-6.032,1.856-7.312,4.752     l-20.816,46.84c-0.048,0.048-0.112,0.08-0.16,0.128c-7.216,7.216-11.272,16.712-11.624,26.864     c-0.024,0.128-0.088,0.264-0.088,0.408c0,0.016,0,0.032,0,0.048c0,0.2,0,0.392,0,0.592c0,0.128,0,0.248,0,0.376     c0,0.128,0,0.248,0,0.376c0,0.2,0,0.392,0,0.592c0,0.016,0,0.032,0,0.048c0,0.136,0.064,0.272,0.088,0.408     c0.36,10.144,4.384,19.648,11.6,26.864c0.048,0.048,0.12,0.08,0.168,0.128l20.824,46.84c1.288,2.88,4.16,4.736,7.32,4.736     c3.16,0,6.032-1.856,7.312-4.752l20.816-46.84c0.048-0.048,0.112-0.08,0.16-0.128c7.216-7.216,11.272-16.712,11.624-26.856     c0.024-0.144,0.088-0.28,0.088-0.424c0-0.016,0-0.024,0-0.032c0-0.2,0-0.392,0.008-0.592c0-0.128,0.04-0.248,0.04-0.376     c0-0.128-0.04-0.248-0.04-0.376C280,295.424,280,295.232,280,295.032z M240,243.696l5.72,12.872c-3.8-0.544-7.64-0.544-11.448,0     L240,243.696z M240,348.304l-5.72-12.872c1.904,0.272,3.808,0.544,5.72,0.544s3.824-0.272,5.72-0.544L240,348.304z M240,320     c-13.256,0-24-10.744-24-24c0-9.032,5.048-16.8,12.416-20.896c0.032-0.016,0.056-0.032,0.088-0.048     c1.096-0.6,2.224-1.128,3.416-1.56c0.32-0.12,0.648-0.2,0.968-0.304c0.952-0.296,1.904-0.592,2.896-0.768     c1.008-0.184,2.032-0.256,3.056-0.312c0.4-0.016,0.768-0.112,1.16-0.112c0.392,0,0.768,0.096,1.152,0.12     c1.024,0.056,2.04,0.12,3.056,0.304c1.008,0.176,1.96,0.472,2.92,0.776c0.32,0.104,0.64,0.176,0.952,0.296     c1.192,0.432,2.328,0.96,3.424,1.568c0.024,0.016,0.048,0.024,0.072,0.04C258.952,279.192,264,286.968,264,296     C264,309.256,253.256,320,240,320z"></path>
		</g>
	</g>
</g>
<g>
</g>
<g>
</g>
<g>
</g>
<g>
</g>
<g>
</g>
<g>
</g>
<g>
</g>
<g>
</g>
<g>
</g>
<g>
</g>
<g>
</g>
<g>
</g>
<g>
</g>
<g>
</g>
<g>
</g>
</svg>